<svg width="17" height="19" viewBox="0 0 17 19" fill="none" xmlns="http://www.w3.org/2000/svg">
<circle cx="8.5" cy="9.5" r="8" stroke="black"/>
<path d="M3.496 9.24C3.496 8.54667 3.61867 7.86933 3.864 7.208C4.12 6.536 4.488 5.928 4.968 5.384C5.448 4.82933 6.03467 4.392 6.728 4.072C7.42133 3.74133 8.21067 3.576 9.096 3.576C10.1413 3.576 11.0427 3.80533 11.8 4.264C12.568 4.72267 13.1387 5.32 13.512 6.056L11.816 7.224C11.624 6.79733 11.3733 6.46133 11.064 6.216C10.7547 5.96 10.424 5.784 10.072 5.688C9.72 5.58133 9.37333 5.528 9.032 5.528C8.47733 5.528 7.992 5.64 7.576 5.864C7.17067 6.088 6.82933 6.38133 6.552 6.744C6.27467 7.10667 6.06667 7.512 5.928 7.96C5.8 8.408 5.736 8.856 5.736 9.304C5.736 9.80533 5.816 10.2907 5.976 10.76C6.136 11.2187 6.36 11.6293 6.648 11.992C6.94667 12.344 7.29867 12.6267 7.704 12.84C8.12 13.0427 8.57333 13.144 9.064 13.144C9.416 13.144 9.77333 13.0853 10.136 12.968C10.4987 12.8507 10.8347 12.664 11.144 12.408C11.4533 12.152 11.6933 11.8213 11.864 11.416L13.672 12.456C13.448 13.0213 13.08 13.5013 12.568 13.896C12.0667 14.2907 11.5013 14.5893 10.872 14.792C10.2427 14.9947 9.61867 15.096 9 15.096C8.18933 15.096 7.448 14.9307 6.776 14.6C6.104 14.2587 5.52267 13.8107 5.032 13.256C4.552 12.6907 4.17333 12.0613 3.896 11.368C3.62933 10.664 3.496 9.95467 3.496 9.24Z" fill="black"/>
</svg>
